<mxfile host="app.diagrams.net" modified="2022-02-04T06:52:56.207Z" agent="5.0 (Windows NT 6.1; Win64; x64) AppleWebKit/537.36 (KHTML, like Gecko) Chrome/95.0.4638.69 Safari/537.36" etag="M4T0Awb8AtbKnXWFB5fR" version="16.5.3" type="github">
  <diagram id="RWXGLycAPiykMZ0wPivC" name="TASK1">
    <mxGraphModel dx="868" dy="482" grid="1" gridSize="10" guides="1" tooltips="1" connect="1" arrows="1" fold="1" page="1" pageScale="1" pageWidth="827" pageHeight="1169" math="0" shadow="0">
      <root>
        <mxCell id="0" />
        <mxCell id="1" parent="0" />
        <mxCell id="qVXhhkEZpILj7u68bDp_-3" style="edgeStyle=orthogonalEdgeStyle;rounded=0;orthogonalLoop=1;jettySize=auto;html=1;exitX=0.5;exitY=1;exitDx=0;exitDy=0;entryX=0.5;entryY=0;entryDx=0;entryDy=0;" edge="1" parent="1" source="qVXhhkEZpILj7u68bDp_-1" target="qVXhhkEZpILj7u68bDp_-2">
          <mxGeometry relative="1" as="geometry" />
        </mxCell>
        <mxCell id="qVXhhkEZpILj7u68bDp_-1" value="НАЧАЛО" style="ellipse;whiteSpace=wrap;html=1;" vertex="1" parent="1">
          <mxGeometry x="350" y="120" width="120" height="80" as="geometry" />
        </mxCell>
        <mxCell id="qVXhhkEZpILj7u68bDp_-10" style="edgeStyle=orthogonalEdgeStyle;rounded=0;orthogonalLoop=1;jettySize=auto;html=1;exitX=0.5;exitY=1;exitDx=0;exitDy=0;entryX=0.5;entryY=0;entryDx=0;entryDy=0;" edge="1" parent="1" source="qVXhhkEZpILj7u68bDp_-2" target="qVXhhkEZpILj7u68bDp_-4">
          <mxGeometry relative="1" as="geometry" />
        </mxCell>
        <mxCell id="qVXhhkEZpILj7u68bDp_-2" value="a = 5&lt;br&gt;b = 6" style="rounded=0;whiteSpace=wrap;html=1;" vertex="1" parent="1">
          <mxGeometry x="350" y="260" width="120" height="60" as="geometry" />
        </mxCell>
        <mxCell id="qVXhhkEZpILj7u68bDp_-11" style="edgeStyle=orthogonalEdgeStyle;rounded=0;orthogonalLoop=1;jettySize=auto;html=1;exitX=0.5;exitY=1;exitDx=0;exitDy=0;entryX=0.5;entryY=0;entryDx=0;entryDy=0;" edge="1" parent="1" source="qVXhhkEZpILj7u68bDp_-4" target="qVXhhkEZpILj7u68bDp_-5">
          <mxGeometry relative="1" as="geometry" />
        </mxCell>
        <mxCell id="qVXhhkEZpILj7u68bDp_-4" value="вывод&lt;br&gt;a &amp;amp; b" style="shape=parallelogram;perimeter=parallelogramPerimeter;whiteSpace=wrap;html=1;fixedSize=1;" vertex="1" parent="1">
          <mxGeometry x="354" y="360" width="120" height="60" as="geometry" />
        </mxCell>
        <mxCell id="qVXhhkEZpILj7u68bDp_-12" style="edgeStyle=orthogonalEdgeStyle;rounded=0;orthogonalLoop=1;jettySize=auto;html=1;exitX=0.5;exitY=1;exitDx=0;exitDy=0;entryX=0.5;entryY=0;entryDx=0;entryDy=0;" edge="1" parent="1" source="qVXhhkEZpILj7u68bDp_-5" target="qVXhhkEZpILj7u68bDp_-6">
          <mxGeometry relative="1" as="geometry" />
        </mxCell>
        <mxCell id="qVXhhkEZpILj7u68bDp_-5" value="вывод&lt;br&gt;a || b" style="shape=parallelogram;perimeter=parallelogramPerimeter;whiteSpace=wrap;html=1;fixedSize=1;" vertex="1" parent="1">
          <mxGeometry x="354" y="480" width="120" height="60" as="geometry" />
        </mxCell>
        <mxCell id="qVXhhkEZpILj7u68bDp_-13" style="edgeStyle=orthogonalEdgeStyle;rounded=0;orthogonalLoop=1;jettySize=auto;html=1;exitX=0.5;exitY=1;exitDx=0;exitDy=0;entryX=0.5;entryY=0;entryDx=0;entryDy=0;" edge="1" parent="1" source="qVXhhkEZpILj7u68bDp_-6" target="qVXhhkEZpILj7u68bDp_-7">
          <mxGeometry relative="1" as="geometry" />
        </mxCell>
        <mxCell id="qVXhhkEZpILj7u68bDp_-6" value="вывод&lt;br&gt;a ^ b" style="shape=parallelogram;perimeter=parallelogramPerimeter;whiteSpace=wrap;html=1;fixedSize=1;" vertex="1" parent="1">
          <mxGeometry x="354" y="600" width="120" height="60" as="geometry" />
        </mxCell>
        <mxCell id="qVXhhkEZpILj7u68bDp_-14" style="edgeStyle=orthogonalEdgeStyle;rounded=0;orthogonalLoop=1;jettySize=auto;html=1;exitX=0.5;exitY=1;exitDx=0;exitDy=0;" edge="1" parent="1" source="qVXhhkEZpILj7u68bDp_-7" target="qVXhhkEZpILj7u68bDp_-8">
          <mxGeometry relative="1" as="geometry" />
        </mxCell>
        <mxCell id="qVXhhkEZpILj7u68bDp_-7" value="вывод&lt;br&gt;a &amp;gt;&amp;gt; 2" style="shape=parallelogram;perimeter=parallelogramPerimeter;whiteSpace=wrap;html=1;fixedSize=1;" vertex="1" parent="1">
          <mxGeometry x="350" y="720" width="120" height="60" as="geometry" />
        </mxCell>
        <mxCell id="qVXhhkEZpILj7u68bDp_-15" style="edgeStyle=orthogonalEdgeStyle;rounded=0;orthogonalLoop=1;jettySize=auto;html=1;exitX=0.5;exitY=1;exitDx=0;exitDy=0;" edge="1" parent="1" source="qVXhhkEZpILj7u68bDp_-8" target="qVXhhkEZpILj7u68bDp_-9">
          <mxGeometry relative="1" as="geometry" />
        </mxCell>
        <mxCell id="qVXhhkEZpILj7u68bDp_-8" value="вывод&lt;br&gt;a &amp;lt;&amp;lt;&amp;nbsp;2" style="shape=parallelogram;perimeter=parallelogramPerimeter;whiteSpace=wrap;html=1;fixedSize=1;" vertex="1" parent="1">
          <mxGeometry x="350" y="840" width="120" height="60" as="geometry" />
        </mxCell>
        <mxCell id="qVXhhkEZpILj7u68bDp_-9" value="КОНЕЦ" style="ellipse;whiteSpace=wrap;html=1;" vertex="1" parent="1">
          <mxGeometry x="350" y="970" width="120" height="80" as="geometry" />
        </mxCell>
      </root>
    </mxGraphModel>
  </diagram>
</mxfile>
